<svg id="mermaid-svg" width="100%" xmlns="http://www.w3.org/2000/svg" style="max-width: 1114.0439453125px;" viewBox="0 0 1114.0439453125 990" role="graphics-document document" aria-roledescription="er" xmlns:xlink="http://www.w3.org/1999/xlink"><style>#mermaid-svg{font-family:"trebuchet ms",verdana,arial,sans-serif;font-size:16px;fill:#333;}#mermaid-svg .error-icon{fill:#552222;}#mermaid-svg .error-text{fill:#552222;stroke:#552222;}#mermaid-svg .edge-thickness-normal{stroke-width:2px;}#mermaid-svg .edge-thickness-thick{stroke-width:3.5px;}#mermaid-svg .edge-pattern-solid{stroke-dasharray:0;}#mermaid-svg .edge-pattern-dashed{stroke-dasharray:3;}#mermaid-svg .edge-pattern-dotted{stroke-dasharray:2;}#mermaid-svg .marker{fill:#333333;stroke:#333333;}#mermaid-svg .marker.cross{stroke:#333333;}#mermaid-svg svg{font-family:"trebuchet ms",verdana,arial,sans-serif;font-size:16px;}#mermaid-svg .entityBox{fill:#ECECFF;stroke:#9370DB;}#mermaid-svg .attributeBoxOdd{fill:#ffffff;stroke:#9370DB;}#mermaid-svg .attributeBoxEven{fill:#f2f2f2;stroke:#9370DB;}#mermaid-svg .relationshipLabelBox{fill:hsl(80, 100%, 96.2745098039%);opacity:0.7;background-color:hsl(80, 100%, 96.2745098039%);}#mermaid-svg .relationshipLabelBox rect{opacity:0.5;}#mermaid-svg .relationshipLine{stroke:#333333;}#mermaid-svg .entityTitleText{text-anchor:middle;font-size:18px;fill:#333;}#mermaid-svg #MD_PARENT_START{fill:#f5f5f5!important;stroke:#333333!important;stroke-width:1;}#mermaid-svg #MD_PARENT_END{fill:#f5f5f5!important;stroke:#333333!important;stroke-width:1;}#mermaid-svg :root{--mermaid-font-family:"trebuchet ms",verdana,arial,sans-serif;}</style><g></g><defs><marker id="MD_PARENT_START" refX="0" refY="7" markerWidth="190" markerHeight="240" orient="auto"><path d="M 18,7 L9,13 L1,7 L9,1 Z"></path></marker></defs><defs><marker id="MD_PARENT_END" refX="19" refY="7" markerWidth="20" markerHeight="28" orient="auto"><path d="M 18,7 L9,13 L1,7 L9,1 Z"></path></marker></defs><defs><marker id="ONLY_ONE_START" refX="0" refY="9" markerWidth="18" markerHeight="18" orient="auto"><path stroke="gray" fill="none" d="M9,0 L9,18 M15,0 L15,18"></path></marker></defs><defs><marker id="ONLY_ONE_END" refX="18" refY="9" markerWidth="18" markerHeight="18" orient="auto"><path stroke="gray" fill="none" d="M3,0 L3,18 M9,0 L9,18"></path></marker></defs><defs><marker id="ZERO_OR_ONE_START" refX="0" refY="9" markerWidth="30" markerHeight="18" orient="auto"><circle stroke="gray" fill="white" cx="21" cy="9" r="6"></circle><path stroke="gray" fill="none" d="M9,0 L9,18"></path></marker></defs><defs><marker id="ZERO_OR_ONE_END" refX="30" refY="9" markerWidth="30" markerHeight="18" orient="auto"><circle stroke="gray" fill="white" cx="9" cy="9" r="6"></circle><path stroke="gray" fill="none" d="M21,0 L21,18"></path></marker></defs><defs><marker id="ONE_OR_MORE_START" refX="18" refY="18" markerWidth="45" markerHeight="36" orient="auto"><path stroke="gray" fill="none" d="M0,18 Q 18,0 36,18 Q 18,36 0,18 M42,9 L42,27"></path></marker></defs><defs><marker id="ONE_OR_MORE_END" refX="27" refY="18" markerWidth="45" markerHeight="36" orient="auto"><path stroke="gray" fill="none" d="M3,9 L3,27 M9,18 Q27,0 45,18 Q27,36 9,18"></path></marker></defs><defs><marker id="ZERO_OR_MORE_START" refX="18" refY="18" markerWidth="57" markerHeight="36" orient="auto"><circle stroke="gray" fill="white" cx="48" cy="18" r="6"></circle><path stroke="gray" fill="none" d="M0,18 Q18,0 36,18 Q18,36 0,18"></path></marker></defs><defs><marker id="ZERO_OR_MORE_END" refX="39" refY="18" markerWidth="57" markerHeight="36" orient="auto"><circle stroke="gray" fill="white" cx="9" cy="18" r="6"></circle><path stroke="gray" fill="none" d="M21,18 Q39,0 57,18 Q39,36 21,18"></path></marker></defs><path class="er relationshipLine" d="M70,270L70,278.333C70,286.667,70,303.333,77.143,320C84.286,336.667,98.571,353.333,105.714,361.667L112.857,370" marker-end="url(#ONLY_ONE_END)" marker-start="url(#ONE_OR_MORE_START)" style="stroke: gray; fill: none;"></path><path class="er relationshipLine" d="M145,445L145,453.333C145,461.667,145,478.333,149.762,495C154.524,511.667,164.048,528.333,168.81,536.667L173.571,545" marker-end="url(#ONE_OR_MORE_END)" marker-start="url(#ONLY_ONE_START)" style="stroke: gray; fill: none;"></path><path class="er relationshipLine" d="M384.533,445L379.299,453.333C374.065,461.667,363.596,478.333,340.34,496.639C317.085,514.944,281.042,534.888,263.021,544.86L245,554.832" marker-end="url(#ONLY_ONE_END)" marker-start="url(#ONE_OR_MORE_START)" style="stroke: gray; fill: none;"></path><path class="er relationshipLine" d="M177.143,95L184.286,103.333C191.429,111.667,205.714,128.333,212.857,151.25C220,174.167,220,203.333,220,232.5C220,261.667,220,290.833,212.857,313.75C205.714,336.667,191.429,353.333,184.286,361.667L177.143,370" marker-end="url(#ONLY_ONE_END)" marker-start="url(#ONE_OR_MORE_START)" style="stroke: gray; fill: none;"></path><path class="er relationshipLine" d="M112.857,95L105.714,103.333C98.571,111.667,84.286,128.333,77.143,145C70,161.667,70,178.333,70,186.667L70,195" marker-end="url(#ONLY_ONE_END)" marker-start="url(#ONLY_ONE_START)" style="stroke: gray; fill: none;"></path><path class="er relationshipLine" d="M659.282,795L659.282,803.333C659.282,811.667,659.282,828.333,671.06,845C682.838,861.667,706.395,878.333,718.173,886.667L729.951,895" marker-end="url(#ONE_OR_MORE_END)" marker-start="url(#ONLY_ONE_START)" style="stroke: gray; fill: none;"></path><path class="er relationshipLine" d="M1022.607,795L1022.607,803.333C1022.607,811.667,1022.607,828.333,998.584,845.438C974.561,862.542,926.514,880.084,902.491,888.855L878.468,897.627" marker-end="url(#ONLY_ONE_END)" marker-start="url(#ONLY_ONE_START)" style="stroke: gray; fill: none;"></path><path class="er relationshipLine" d="M578.722,620L578.722,628.333C578.722,636.667,578.722,653.333,586.395,670C594.067,686.667,609.412,703.333,617.084,711.667L624.756,720" marker-end="url(#ZERO_OR_MORE_END)" marker-start="url(#ONE_OR_MORE_START)" style="stroke: gray; fill: none;"></path><path class="er relationshipLine" d="M433.938,445L439.683,453.333C445.427,461.667,456.916,478.333,473.167,495C489.418,511.667,510.431,528.333,520.937,536.667L531.443,545" marker-end="url(#ONE_OR_MORE_END)" marker-start="url(#ONE_OR_MORE_START)" style="stroke: gray; fill: none;"></path><path class="er relationshipLine" d="M628.722,445L628.722,453.333C628.722,461.667,628.722,478.333,623.96,495C619.198,511.667,609.675,528.333,604.913,536.667L600.151,545" marker-end="url(#ONE_OR_MORE_END)" marker-start="url(#ONE_OR_MORE_START)" style="stroke: gray; fill: none;"></path><path class="er relationshipLine" d="M1022.607,620L1022.607,628.333C1022.607,636.667,1022.607,653.333,1022.607,670C1022.607,686.667,1022.607,703.333,1022.607,711.667L1022.607,720" marker-end="url(#ONE_OR_MORE_END)" marker-start="url(#ONE_OR_MORE_START)" style="stroke: gray; fill: none;"></path><path class="er relationshipLine" d="M976.687,445L984.34,453.333C991.994,461.667,1007.301,478.333,1014.954,495C1022.607,511.667,1022.607,528.333,1022.607,536.667L1022.607,545" marker-end="url(#ONLY_ONE_END)" marker-start="url(#ONE_OR_MORE_START)" style="stroke: gray; fill: none;"></path><path class="er relationshipLine" d="M889.245,445L877.467,453.333C865.689,461.667,842.132,478.333,830.354,501.25C818.576,524.167,818.576,553.333,818.576,582.5C818.576,611.667,818.576,640.833,803.405,663.75C788.234,686.667,757.893,703.333,742.722,711.667L727.551,720" marker-end="url(#ONLY_ONE_END)" marker-start="url(#ONE_OR_MORE_START)" style="stroke: gray; fill: none;"></path><path class="er relationshipLine" d="M565.684,270L576.19,278.333C586.697,286.667,607.709,303.333,618.216,320C628.722,336.667,628.722,353.333,628.722,361.667L628.722,370" marker-end="url(#ONLY_ONE_END)" marker-start="url(#ONLY_ONE_START)" style="stroke: gray; fill: none;"></path><path class="er relationshipLine" d="M471.127,270L460.62,278.333C450.114,286.667,429.101,303.333,418.595,320C408.088,336.667,408.088,353.333,408.088,361.667L408.088,370" marker-end="url(#ONLY_ONE_END)" marker-start="url(#ONLY_ONE_START)" style="stroke: gray; fill: none;"></path><path class="er relationshipLine" d="M942.246,270L942.246,278.333C942.246,286.667,942.246,303.333,942.246,320C942.246,336.667,942.246,353.333,942.246,361.667L942.246,370" marker-end="url(#ONE_OR_MORE_END)" marker-start="url(#ONE_OR_MORE_START)" style="stroke: gray; fill: none;"></path><g id="entity-Framebuffer-f891aaa1-efe6-58e7-9618-f5e8fa295542" transform="translate(20,195 )"><rect class="er entityBox" x="0" y="0" width="100" height="75"></rect><text class="er entityLabel" id="text-entity-Framebuffer-f891aaa1-efe6-58e7-9618-f5e8fa295542" x="0" y="0" transform="translate(50,37.5)" style="dominant-baseline: middle; text-anchor: middle; font-size: 12px;">Framebuffer</text></g><g id="entity-RenderPass-c61f100a-2228-5b2f-afd5-936230858402" transform="translate(95,370 )"><rect class="er entityBox" x="0" y="0" width="100" height="75"></rect><text class="er entityLabel" id="text-entity-RenderPass-c61f100a-2228-5b2f-afd5-936230858402" x="0" y="0" transform="translate(50,37.5)" style="dominant-baseline: middle; text-anchor: middle; font-size: 12px;">RenderPass</text></g><g id="entity-SubPass-d0850fd8-260e-5983-907e-973de35ba3aa" transform="translate(145,545 )"><rect class="er entityBox" x="0" y="0" width="100" height="75"></rect><text class="er entityLabel" id="text-entity-SubPass-d0850fd8-260e-5983-907e-973de35ba3aa" x="0" y="0" transform="translate(50,37.5)" style="dominant-baseline: middle; text-anchor: middle; font-size: 12px;">SubPass</text></g><g id="entity-GraphicsPipeline-4a9fb63b-dd6e-539f-b32c-7e327f67ce46" transform="translate(348.16552734375,370 )"><rect class="er entityBox" x="0" y="0" width="119.845703125" height="75"></rect><text class="er entityLabel" id="text-entity-GraphicsPipeline-4a9fb63b-dd6e-539f-b32c-7e327f67ce46" x="0" y="0" transform="translate(59.9228515625,37.5)" style="dominant-baseline: middle; text-anchor: middle; font-size: 12px;">GraphicsPipeline</text></g><g id="entity-vkCmdBeginRenderPass-e7bd9321-7c29-5afc-a066-6163b47853a1" transform="translate(67.5615234375,20 )"><rect class="er entityBox" x="0" y="0" width="154.876953125" height="75"></rect><text class="er entityLabel" id="text-entity-vkCmdBeginRenderPass-e7bd9321-7c29-5afc-a066-6163b47853a1" x="0" y="0" transform="translate(77.4384765625,37.5)" style="dominant-baseline: middle; text-anchor: middle; font-size: 12px;">vkCmdBeginRenderPass</text></g><g id="entity-VkDescriptorSetLayout-ea0d75a2-d2cb-505b-94e9-47dd672aa81f" transform="translate(583.37890625,720 )"><rect class="er entityBox" x="0" y="0" width="151.806640625" height="75"></rect><text class="er entityLabel" id="text-entity-VkDescriptorSetLayout-ea0d75a2-d2cb-505b-94e9-47dd672aa81f" x="0" y="0" transform="translate(75.9033203125,37.5)" style="dominant-baseline: middle; text-anchor: middle; font-size: 12px;">VkDescriptorSetLayout</text></g><g id="entity-VkDescriptorSetLayoutBinding-d1804742-0df7-5410-925e-1ad372c97565" transform="translate(687.4365234375,895 )"><rect class="er entityBox" x="0" y="0" width="191.03125" height="75"></rect><text class="er entityLabel" id="text-entity-VkDescriptorSetLayoutBinding-d1804742-0df7-5410-925e-1ad372c97565" x="0" y="0" transform="translate(95.515625,37.5)" style="dominant-baseline: middle; text-anchor: middle; font-size: 12px;">VkDescriptorSetLayoutBinding</text></g><g id="entity-VkDescriptorPoolSize-8f2c5ba7-e8e5-545d-8c2f-e668d7006775" transform="translate(951.1708984375,720 )"><rect class="er entityBox" x="0" y="0" width="142.873046875" height="75"></rect><text class="er entityLabel" id="text-entity-VkDescriptorPoolSize-8f2c5ba7-e8e5-545d-8c2f-e668d7006775" x="0" y="0" transform="translate(71.4365234375,37.5)" style="dominant-baseline: middle; text-anchor: middle; font-size: 12px;">VkDescriptorPoolSize</text></g><g id="entity-VkPipelineLayout-ffec35f4-5db7-5b43-a9cc-af525f2ed1ca" transform="translate(517.60205078125,545 )"><rect class="er entityBox" x="0" y="0" width="122.240234375" height="75"></rect><text class="er entityLabel" id="text-entity-VkPipelineLayout-ffec35f4-5db7-5b43-a9cc-af525f2ed1ca" x="0" y="0" transform="translate(61.1201171875,37.5)" style="dominant-baseline: middle; text-anchor: middle; font-size: 12px;">VkPipelineLayout</text></g><g id="entity-ComputePipeline-26fc065e-273c-5876-8b79-3eb82ac7aa12" transform="translate(568.01123046875,370 )"><rect class="er entityBox" x="0" y="0" width="121.421875" height="75"></rect><text class="er entityLabel" id="text-entity-ComputePipeline-26fc065e-273c-5876-8b79-3eb82ac7aa12" x="0" y="0" transform="translate(60.7109375,37.5)" style="dominant-baseline: middle; text-anchor: middle; font-size: 12px;">ComputePipeline</text></g><g id="entity-VkDescriptorPool-7a9aa9c1-7889-5568-ad94-ea6073543399" transform="translate(961.884765625,545 )"><rect class="er entityBox" x="0" y="0" width="121.4453125" height="75"></rect><text class="er entityLabel" id="text-entity-VkDescriptorPool-7a9aa9c1-7889-5568-ad94-ea6073543399" x="0" y="0" transform="translate(60.72265625,37.5)" style="dominant-baseline: middle; text-anchor: middle; font-size: 12px;">VkDescriptorPool</text></g><g id="entity-VkDescriptorSet-084fd053-9024-59e8-8306-ff176f5f16ca" transform="translate(884.369140625,370 )"><rect class="er entityBox" x="0" y="0" width="115.75390625" height="75"></rect><text class="er entityLabel" id="text-entity-VkDescriptorSet-084fd053-9024-59e8-8306-ff176f5f16ca" x="0" y="0" transform="translate(57.876953125,37.5)" style="dominant-baseline: middle; text-anchor: middle; font-size: 12px;">VkDescriptorSet</text></g><g id="entity-vkCmdBindPipeline-4a0a0a6c-97ac-52ad-87aa-98af86621bf3" transform="translate(452.1513671875,195 )"><rect class="er entityBox" x="0" y="0" width="132.5078125" height="75"></rect><text class="er entityLabel" id="text-entity-vkCmdBindPipeline-4a0a0a6c-97ac-52ad-87aa-98af86621bf3" x="0" y="0" transform="translate(66.25390625,37.5)" style="dominant-baseline: middle; text-anchor: middle; font-size: 12px;">vkCmdBindPipeline</text></g><g id="entity-vkCmdBindDescriptorSets-9c8c206d-f9ac-568d-a10a-914bc6d7f6e9" transform="translate(858.9365234375,195 )"><rect class="er entityBox" x="0" y="0" width="166.619140625" height="75"></rect><text class="er entityLabel" id="text-entity-vkCmdBindDescriptorSets-9c8c206d-f9ac-568d-a10a-914bc6d7f6e9" x="0" y="0" transform="translate(83.3095703125,37.5)" style="dominant-baseline: middle; text-anchor: middle; font-size: 12px;">vkCmdBindDescriptorSets</text></g><rect class="er relationshipLabelBox" x="67.9470443725586" y="317.87420654296875" width="22.958984375" height="14"></rect><text class="er relationshipLabel" id="rel1" x="79.4265365600586" y="324.87420654296875" style="text-anchor: middle; dominant-baseline: middle; font-size: 12px;">uses</text><rect class="er relationshipLabelBox" x="141.5640869140625" y="490.44708251953125" width="17.861328125" height="14"></rect><text class="er relationshipLabel" id="rel2" x="150.4947509765625" y="497.44708251953125" style="text-anchor: middle; dominant-baseline: middle; font-size: 12px;">has</text><rect class="er relationshipLabelBox" x="311.2596435546875" y="502.32061767578125" width="22.958984375" height="14"></rect><text class="er relationshipLabel" id="rel3" x="322.7391357421875" y="509.32061767578125" style="text-anchor: middle; dominant-baseline: middle; font-size: 12px;">uses</text><rect class="er relationshipLabelBox" x="208.5205078125" y="225.5" width="22.958984375" height="14"></rect><text class="er relationshipLabel" id="rel4" x="220" y="232.5" style="text-anchor: middle; dominant-baseline: middle; font-size: 12px;">uses</text><rect class="er relationshipLabelBox" x="67.94682312011719" y="133.1256561279297" width="22.958984375" height="14"></rect><text class="er relationshipLabel" id="rel5" x="79.42631530761719" y="140.1256561279297" style="text-anchor: middle; dominant-baseline: middle; font-size: 12px;">uses</text><rect class="er relationshipLabelBox" x="642.864501953125" y="847.6749877929688" width="72.484375" height="14"></rect><text class="er relationshipLabel" id="rel6" x="679.106689453125" y="854.6749877929688" style="text-anchor: middle; dominant-baseline: middle; font-size: 12px;">created using</text><rect class="er relationshipLabelBox" x="942.4049072265625" y="855.9430541992188" width="49.314453125" height="14"></rect><text class="er relationshipLabel" id="rel7" x="967.0621337890625" y="862.9430541992188" style="text-anchor: middle; dominant-baseline: middle; font-size: 12px;">subset of</text><rect class="er relationshipLabelBox" x="577.682373046875" y="668.447509765625" width="22.958984375" height="14"></rect><text class="er relationshipLabel" id="rel8" x="589.161865234375" y="675.447509765625" style="text-anchor: middle; dominant-baseline: middle; font-size: 12px;">uses</text><rect class="er relationshipLabelBox" x="466.3543395996094" y="492.6642761230469" width="22.958984375" height="14"></rect><text class="er relationshipLabel" id="rel9" x="477.8338317871094" y="499.6642761230469" style="text-anchor: middle; dominant-baseline: middle; font-size: 12px;">uses</text><rect class="er relationshipLabelBox" x="611.74755859375" y="490.44708251953125" width="22.958984375" height="14"></rect><text class="er relationshipLabel" id="rel10" x="623.22705078125" y="497.44708251953125" style="text-anchor: middle; dominant-baseline: middle; font-size: 12px;">uses</text><rect class="er relationshipLabelBox" x="986.3648071289062" y="663" width="72.484375" height="14"></rect><text class="er relationshipLabel" id="rel11" x="1022.6069946289062" y="670" style="text-anchor: middle; dominant-baseline: middle; font-size: 12px;">created using</text><rect class="er relationshipLabelBox" x="972.599609375" y="482.57275390625" width="79.2109375" height="14"></rect><text class="er relationshipLabel" id="rel12" x="1012.205078125" y="489.57275390625" style="text-anchor: middle; dominant-baseline: middle; font-size: 12px;">allocated from</text><rect class="er relationshipLabelBox" x="778.020263671875" y="582.551513671875" width="81.09375" height="14"></rect><text class="er relationshipLabel" id="rel13" x="818.567138671875" y="589.551513671875" style="text-anchor: middle; dominant-baseline: middle; font-size: 12px;">allocated using</text><rect class="er relationshipLabelBox" x="597.8867797851562" y="304.5555419921875" width="28.349609375" height="14"></rect><text class="er relationshipLabel" id="rel14" x="612.0615844726562" y="311.5555419921875" style="text-anchor: middle; dominant-baseline: middle; font-size: 12px;">binds</text><rect class="er relationshipLabelBox" x="410.5742492675781" y="304.5554504394531" width="28.349609375" height="14"></rect><text class="er relationshipLabel" id="rel15" x="424.7490539550781" y="311.5554504394531" style="text-anchor: middle; dominant-baseline: middle; font-size: 12px;">binds</text><rect class="er relationshipLabelBox" x="928.0711669921875" y="313" width="28.349609375" height="14"></rect><text class="er relationshipLabel" id="rel16" x="942.2459716796875" y="320" style="text-anchor: middle; dominant-baseline: middle; font-size: 12px;">binds</text><style>@import url("https://cdnjs.cloudflare.com/ajax/libs/font-awesome/6.4.0/css/all.min.css");</style></svg>